name Walk4.mot
datacolumns 19
datarows 15
range 0.63100000 0.64500000
endheader

                time	   L_ground_force_vx	   L_ground_force_vy	   L_ground_force_vz	   L_ground_force_px	   L_ground_force_py	   L_ground_force_pz	   R_ground_force_vx	   R_ground_force_vy	   R_ground_force_vz	   R_ground_force_px	   R_ground_force_py	   R_ground_force_pz	   L_ground_torque_x	   L_ground_torque_y	   L_ground_torque_z	   R_ground_torque_x	   R_ground_torque_y	   R_ground_torque_z	
          0.63100000	         -1.45104356	         56.33421930	         -0.49354391	         -0.00004482	          0.00000000	          0.00063531	         -0.00000000	          0.00000000	          0.00000000	          0.00000000	          0.00000000	          0.00000000	          0.00000000	         -0.07064466	          0.00000000	          0.00000000	          0.00000000	          0.00000000	
          0.63200000	         -1.87053008	         64.34768339	         -0.27743726	         -0.02110562	          0.00000000	         -0.00090091	         -0.00000000	          0.00000000	          0.00000000	          0.00000000	          0.00000000	          0.00000000	          0.00000000	         -0.07456604	          0.00000000	          0.00000000	          0.00000000	          0.00000000	
          0.63300000	         -2.33700690	         72.50796697	         -0.07053167	         -0.04208679	          0.00000000	         -0.00243080	         -0.00000000	          0.00000000	          0.00000000	          0.00000000	          0.00000000	          0.00000000	          0.00000000	         -0.07830474	          0.00000000	          0.00000000	          0.00000000	          0.00000000	
          0.63400000	         -2.85263107	         80.80087219	          0.12598865	         -0.06291743	          0.00000000	         -0.00394951	         -0.00000000	          0.00000000	          0.00000000	          0.00000000	          0.00000000	          0.00000000	          0.00000000	         -0.08183340	          0.00000000	          0.00000000	          0.00000000	          0.00000000	
          0.63500000	         -3.41951607	         89.21123221	          0.31095913	         -0.08353099	          0.00000000	         -0.00545238	         -0.00000000	          0.00000000	          0.00000000	          0.00000000	          0.00000000	          0.00000000	          0.00000000	         -0.08512331	          0.00000000	          0.00000000	          0.00000000	          0.00000000	
          0.63600000	         -4.03971610	         97.72296003	          0.48324940	         -0.10386681	          0.00000000	         -0.00693504	         -0.00000000	          0.00000000	          0.00000000	          0.00000000	          0.00000000	          0.00000000	          0.00000000	         -0.08814432	          0.00000000	          0.00000000	          0.00000000	          0.00000000	
          0.63700000	         -4.71520568	        106.31916902	          0.64178316	         -0.12387032	          0.00000000	         -0.00839348	         -0.00000000	          0.00000000	          0.00000000	          0.00000000	          0.00000000	          0.00000000	          0.00000000	         -0.09086512	          0.00000000	          0.00000000	          0.00000000	          0.00000000	
          0.63800000	         -5.44785309	        114.98237737	          0.78556436	         -0.14349275	          0.00000000	         -0.00982410	         -0.00000000	          0.00000000	          0.00000000	          0.00000000	          0.00000000	          0.00000000	          0.00000000	         -0.09325349	          0.00000000	          0.00000000	          0.00000000	          0.00000000	
          0.63900000	         -6.23938612	        123.69479888	          0.91371062	         -0.16269086	          0.00000000	         -0.01122372	         -0.00000000	          0.00000000	          0.00000000	          0.00000000	          0.00000000	          0.00000000	          0.00000000	         -0.09527681	          0.00000000	          0.00000000	          0.00000000	          0.00000000	
          0.64000000	         -7.09134992	        132.43870219	          1.02549221	         -0.18142666	          0.00000000	         -0.01258957	         -0.00000000	          0.00000000	          0.00000000	          0.00000000	          0.00000000	          0.00000000	          0.00000000	         -0.09690248	          0.00000000	          0.00000000	          0.00000000	          0.00000000	
          0.64100000	         -8.00505845	        141.19680138	          1.12037317	         -0.19966710	          0.00000000	         -0.01391931	         -0.00000000	          0.00000000	          0.00000000	          0.00000000	          0.00000000	          0.00000000	          0.00000000	         -0.09809837	          0.00000000	          0.00000000	          0.00000000	          0.00000000	
          0.64200000	         -8.98154310	        149.95262844	          1.19804943	         -0.21738378	          0.00000000	         -0.01521098	         -0.00000000	          0.00000000	          0.00000000	          0.00000000	          0.00000000	          0.00000000	          0.00000000	         -0.09883319	          0.00000000	          0.00000000	          0.00000000	          0.00000000	
          0.64300000	        -10.02150327	        158.69083994	          1.25847865	         -0.23455265	          0.00000000	         -0.01646296	         -0.00000000	          0.00000000	          0.00000000	          0.00000000	          0.00000000	          0.00000000	          0.00000000	         -0.09907661	          0.00000000	          0.00000000	          0.00000000	          0.00000000	
          0.64400000	        -11.12526350	        167.39742556	          1.30189775	         -0.25115377	          0.00000000	         -0.01767398	         -0.00000000	          0.00000000	          0.00000000	          0.00000000	          0.00000000	          0.00000000	          0.00000000	         -0.09879922	          0.00000000	          0.00000000	          0.00000000	          0.00000000	
          0.64500000	        -12.29274059	        176.05980861	          1.32882635	         -0.26717099	          0.00000000	         -0.01884307	         -0.00000000	          0.00000000	          0.00000000	          0.00000000	          0.00000000	          0.00000000	          0.00000000	         -0.09797237	          0.00000000	          0.00000000	          0.00000000	          0.00000000	
